<svg width="5" height="5" viewBox="0 0 5 5" fill="none" xmlns="http://www.w3.org/2000/svg">
<path d="M2.31052 0.315674C1.78113 0.315674 1.27342 0.525973 0.899088 0.900308C0.524753 1.27464 0.314454 1.78235 0.314453 2.31174C0.314454 2.84113 0.524753 3.34884 0.899088 3.72317C1.27342 4.09751 1.78113 4.30781 2.31052 4.30781C2.83991 4.30781 3.34762 4.09751 3.72195 3.72317C4.09629 3.34884 4.30658 2.84113 4.30658 2.31174C4.30582 2.15632 4.2869 2.00151 4.25022 1.85048C4.05541 2.03794 3.79555 2.14265 3.5252 2.14264C3.24797 2.14265 2.98208 2.03255 2.78601 1.83656C2.58994 1.64056 2.47973 1.37472 2.47962 1.09749C2.47995 0.826954 2.58514 0.567078 2.77307 0.372471C2.62163 0.335543 2.46639 0.316481 2.31052 0.315674V0.315674Z" fill="#D9D9D9"/>
</svg>
